<svg width="400" height="400" viewBox="-1.5 -1.5 3 3" xmlns="http://www.w3.org/2000/svg">
    <!-- Draw the unit circle -->
    <circle cx="0" cy="0" r="1" stroke="white" stroke-width="0.005" fill="none" />

    <!-- Draw the x and y axes -->
    <line x1="-1.2" y1="0" x2="1.2" y2="0" stroke="white" stroke-dasharray="0.005" stroke-width="0.005" />
    <line x1="0" y1="-1.2" x2="0" y2="1.2" stroke="white" stroke-dasharray="0.005" stroke-width="0.005" />

    <!-- Add labels for the angles -->
    <!-- 0 degrees -->
    <text x="0.1" y="0.1" text-anchor="middle" font-size="0.2" fill="white">0°</text>
    <!-- 30 degrees -->
    <text x="0.87" y="0.5" text-anchor="middle" font-size="0.2" fill="white">30°</text>
    <!-- 60 degrees -->
    <text x="0.5" y="0.87" text-anchor="middle" font-size="0.2" fill="white">60°</text>
    <!-- 90 degrees -->
    <text x="0.1" y="1.1" text-anchor="middle" font-size="0.2" fill="white">90°</text>
    <!-- 120 degrees -->
    <text x="-0.5" y="0.87" text-anchor="middle" font-size="0.2" fill="white">120°</text>
    <!-- 150 degrees -->
    <text x="-0.87" y="0.5" text-anchor="middle" font-size="0.2" fill="white">150°</text>
    <!-- 180 degrees -->
    <text x="-1.1" y="0.1" text-anchor="middle" font-size="0.2" fill="white">180°</text>
    <!-- 210 degrees -->
    <text x="-0.87" y="-0.5" text-anchor="middle" font-size="0.2" fill="white">210°</text>
    <!-- 240 degrees -->
    <text x="-0.5" y="-0.87" text-anchor="middle" font-size="0.2" fill="white">240°</text>
    <!-- 270 degrees -->
    <text x="-0.1" y="-1.1" text-anchor="middle" font-size="0.2" fill="white">270°</text>
    <!-- 300 degrees -->
    <text x="0.5" y="-0.87" text-anchor="middle" font-size="0.2" fill="white">300°</text>
    <!-- 330 degrees -->
    <text x="0.87" y="-0.5" text-anchor="middle" font-size="0.2" fill="white">330°</text>

    <!-- Draw the angle markers and lines -->
    <line x1="0" y1="0" x2="1" y2="0" stroke="white" stroke-width="0.01" />
    <line x1="0" y1="0" x2="{{ __V__A.__phasor0__data.1 | cos * __V__A.__phasor0__data.0  }}" y2="{{ __V__A.__phasor0__data.1 | sin * __V__A.__phasor0__data.0 }}" stroke="red" stroke-width="0.01" />
    <line x1="0" y1="0" x2="{{ __V__B.__phasor0__data.1 | cos * __V__B.__phasor0__data.0  }}" y2="{{ __V__B.__phasor0__data.1 | sin * __V__B.__phasor0__data.0 }}" stroke="blue" stroke-width="0.01" />
    <line x1="0" y1="0" x2="{{ __V__C.__phasor0__data.1 | cos * __V__C.__phasor0__data.0  }}" y2="{{ __V__C.__phasor0__data.1 | sin * __V__C.__phasor0__data.0 }}" stroke="green" stroke-width="0.01" />

</svg>
